<svg xmlns="http://www.w3.org/2000/svg" viewBox="0 0 512 512" fill="currentColor">
  <path d="M255.8 44.8c-6.2 0-12.4 1.3-17.2 4.1L86 137.3c-9.6 5.5-9.6 14.3 0 19.8l152.7 88.4a37.4 37.4 0 0 0 34.3 0L425.6 157c9.6-5.5 9.6-14.3 0-19.8L273 48.9c-4.8-2.8-11-4.1-17.1-4.1zm-.9 53a50 50 0 0 1 24.3 6.3c5 2.7 8.2 5.9 9.7 9.4a23 23 0 0 1 .3 13.9l-1.6 5.7c-1 4-1.3 7-.7 8.8.6 1.7 2 3.3 4.3 4.5l3.3 2-33.2 18.5-3.7-2c-4.1-2.3-6.7-5-7.9-7.8-1.2-3-1-7.6.6-14l1.6-5.8c.8-3.4 1-6.2.2-8.4-.6-2.2-2.1-4-4.4-5.3-3.5-2-7.8-2.7-12.7-2.1-5 .5-10 2.3-15.3 5.2a64.1 64.1 0 0 0-24.1 24.7l-23.7-13.2c5.3-5.3 10.5-10 15.7-14 5.1-4 10.5-7.6 16.2-10.8 15-8.4 29-13.4 41.8-15 3.2-.4 6.3-.6 9.3-.5zm50.8 56.8 26.8 15-33.2 18.6-26.8-15 33.2-18.6zm-230 19.2c-5.8-.1-9.7 4.4-9.7 12.3v157.7c0 11 7.6 24.2 17.1 29.7l147 84.9c9.5 5.5 17.1 1.1 17.1-10V290.9c0-11-7.6-24.2-17.1-29.7L83 176.2a16 16 0 0 0-7.4-2.4zm360.7 0a16 16 0 0 0-7.4 2.4l-147 84.9a37.5 37.5 0 0 0-17.1 29.7v157.7c0 11 7.6 15.4 17.1 9.9l147-84.9a37.5 37.5 0 0 0 17.1-29.7V186.1c0-8-3.9-12.4-9.7-12.3zM115 237.6c6.6 1.4 12.5 3 18 5 5.4 2 10.6 4.4 15.6 7.3a93.6 93.6 0 0 1 30.3 26.1c6.9 9.7 10.3 20 10.3 31 0 5.7-1 10.1-3.1 13.4-2.1 3.2-5.7 6-10.8 8.1l-5.2 2c-3.7 1.4-6.1 2.9-7.3 4.4a9.7 9.7 0 0 0-1.7 6v4l-29.3-17v-4.2c0-4.7 1-8.4 2.7-11 1.8-2.6 5.5-5.1 11.3-7.4l5.2-2c3-1.2 5.3-2.8 6.7-4.6 1.5-1.8 2.2-4 2.2-6.7 0-4-1.3-7.9-3.9-11.6-2.6-3.8-6.2-7-10.9-9.8a51.1 51.1 0 0 0-30.1-6v-27zm269.5 8.6c1.6 0 3 .2 4.3.5 6.9 1.7 10.4 8 10.4 19 0 5.7-1 11.3-3.2 17-2.1 5.7-5.7 12.6-10.8 20.6l-5.2 8c-3.7 5.6-6.1 10-7.2 12.7a21.3 21.3 0 0 0-1.7 8.1v3.9l-29.4 17v-4.3c0-4.7 1-9.4 2.7-14 1.8-4.8 5.6-11.6 11.3-20.6l5.2-8c3.1-4.8 5.3-8.9 6.8-12.3 1.4-3.5 2.1-6.6 2.1-9.2 0-4-1.3-6.5-3.9-7.2-2.6-.8-6.2.1-10.8 2.8a76 76 0 0 0-14.3 11.2 170 170 0 0 0-15.9 17.7V282c6.6-6.2 12.6-11.4 18-15.7a132 132 0 0 1 15.7-10.8 56.7 56.7 0 0 1 26-9.3zm-252.7 94.5 29.3 17v30.7l-29.3-17v-30.7zm239.3 8v30.8l-29.4 17v-30.8l29.4-17z"/>
</svg>
