<svg xmlns="http://www.w3.org/2000/svg" xml:space="preserve" viewBox="0 0 473.7 473.7">
  <path fill="#344e5d" d="M473.7 236.8a236.8 236.8 0 1 0-473.7 0 236.8 236.8 0 0 0 473.7 0z"/>
  <g fill="#fff">
    <path d="M331.5 307c-12 14.8-29.3 11.5-46.4 11.5H166c-21.4 0-24-20-23.7-38.4h29c2.6 0 4.4-1.2 5.6-2.8a6 6 0 0 0 .5-7.8L134.7 203a7.1 7.1 0 0 0-12.1 0l-42.7 66.7c-2.9 4.4 1 10.5 6 10.5h28.6c0 21.6 2 43.5 21.7 56.9 18.4 12.4 40.7 9.5 61.8 9.5H285c24.8 0 49 1.9 66.5-19.8 11.3-14-8.5-33.8-19.9-19.7zM389.8 188.4h-28.3c.1-21.6-2-43.5-21.6-56.8C321.5 119 299 122 278 122h-86.8c-24.9 0-49-1.8-66.6 19.8-11.3 14 8.5 33.8 20 19.8 12-14.9 29.3-11.6 46.4-11.6H310c21.4 0 23.9 20 23.7 38.4h-29.4a6.4 6.4 0 0 0-5.5 2.8 6 6 0 0 0-.6 7.8l42.7 66.6c3 4.6 9.2 4.5 12.1 0l42.7-66.6c3-4.5-.9-10.6-6-10.6z"/>
  </g>
</svg>
