<svg xmlns="http://www.w3.org/2000/svg" xml:space="preserve" fill="currentColor" viewBox="0 0 502 502">
  <path d="M492 439 344 291a43 43 0 0 1-9-47 173 173 0 0 0-39-190 173 173 0 0 0-244 0 173 173 0 0 0-2 246 172 172 0 0 0 199 35c16-8 36-5 49 8l145 145a35 35 0 0 0 49 0c13-14 13-36 0-49zm-14 35a15 15 0 0 1-21 0L312 329a63 63 0 0 0-72-12 153 153 0 0 1-176-31A155 155 0 0 1 174 24a153 153 0 0 1 142 213c-9 23-4 50 14 68l148 148c5 5 5 15 0 21z"/>
  <path d="M174 55a123 123 0 1 0 0 247 123 123 0 0 0 0-247zm0 226a103 103 0 1 1 0-207 103 103 0 0 1 0 207z"/>
  <path d="M207 92c-10-4-21-7-33-7a93 93 0 0 0-80 139 10 10 0 1 0 17-10 72 72 0 0 1 89-104 10 10 0 0 0 7-18zM237 111a10 10 0 1 0-13 14c5 5 10 11 14 18a10 10 0 1 0 17-10c-5-8-11-16-18-22z"/>
</svg>
